<?xml version="1.0" standalone="no"?>
<!DOCTYPE svg PUBLIC "-//W3C//DTD SVG 20010904//EN"
 "http://www.w3.org/TR/2001/REC-SVG-20010904/DTD/svg10.dtd">
<svg version="1.0" xmlns="http://www.w3.org/2000/svg"
 width="512.000000pt" height="512.000000pt" viewBox="0 0 512.000000 512.000000"
 preserveAspectRatio="xMidYMid meet">
<metadata>
Created by potrace 1.16, written by Peter Selinger 2001-2019
</metadata>
<g transform="translate(0.000000,512.000000) scale(0.100000,-0.100000)"
fill="#000000" stroke="none">
<path d="M1395 5106 c-175 -29 -334 -80 -486 -157 -53 -26 -106 -60 -118 -75
-52 -66 -1 -164 85 -164 15 0 77 24 138 54 209 103 402 147 636 147 290 0 545
-75 782 -230 345 -226 571 -569 644 -981 20 -113 20 -348 -1 -465 -94 -542
-482 -984 -1001 -1144 -145 -45 -260 -62 -419 -62 -319 -2 -613 94 -859 279
-90 68 -93 68 -252 28 -76 -19 -140 -33 -142 -32 -2 2 20 54 47 115 28 61 51
125 51 142 0 22 -19 61 -61 126 -109 169 -182 355 -214 551 -14 81 -16 142
-12 280 4 154 8 192 34 292 34 130 78 246 129 338 44 82 46 132 5 173 -37 36
-94 40 -135 8 -35 -28 -118 -194 -162 -324 -61 -183 -75 -269 -81 -490 -5
-174 -2 -216 16 -324 34 -200 111 -404 227 -602 l27 -45 -86 -191 c-50 -109
-87 -203 -87 -221 0 -21 10 -43 28 -64 40 -44 74 -41 321 24 l203 54 81 -54
c202 -134 450 -229 692 -262 87 -12 365 -15 420 -4 l34 6 3 -493 3 -494 32
-67 c41 -88 113 -160 201 -201 l67 -32 760 -3 760 -3 330 -269 c326 -267 330
-270 376 -270 37 0 52 5 73 26 l26 27 0 242 0 243 153 4 c147 3 154 4 219 35
88 41 160 113 201 201 l32 67 0 1085 0 1085 -32 67 c-41 88 -113 160 -201 201
l-67 32 -757 3 -756 2 -1 158 c0 191 -23 337 -79 508 -185 562 -645 974 -1234
1105 -120 27 -469 36 -593 15z m3400 -2017 c62 -31 102 -86 115 -158 14 -73
14 -1929 0 -2002 -13 -72 -53 -127 -115 -158 -47 -25 -59 -26 -242 -30 -258
-4 -242 11 -245 -235 l-3 -183 -254 209 -255 208 -737 0 c-452 0 -757 4 -790
10 -72 13 -127 53 -158 115 l-26 49 -3 477 -3 476 108 37 c531 184 934 625
1073 1174 l11 43 737 -3 738 -3 49 -26z"/>
<path d="M3430 2595 c-13 -14 -96 -190 -185 -392 l-161 -368 -44 -6 c-54 -7
-100 -53 -100 -100 0 -34 23 -85 42 -91 9 -3 -6 -48 -50 -149 -71 -165 -76
-197 -33 -240 39 -38 110 -41 144 -7 19 19 91 171 164 346 l13 32 280 -2 280
-3 80 -180 c44 -99 89 -188 101 -197 13 -11 38 -18 66 -18 36 0 50 6 74 29 43
43 38 75 -33 240 -44 101 -59 146 -50 149 19 6 42 57 42 91 0 47 -46 93 -100
100 l-44 6 -161 367 c-89 202 -172 379 -185 393 -33 36 -106 36 -140 0z m163
-553 c48 -108 87 -201 87 -205 0 -4 -81 -7 -180 -7 -99 0 -180 3 -180 8 0 14
174 402 180 402 4 0 46 -89 93 -198z"/>
<path d="M501 4656 c-31 -17 -50 -53 -51 -94 0 -26 9 -43 35 -69 32 -32 40
-35 76 -30 50 7 87 39 95 85 16 87 -77 151 -155 108z"/>
<path d="M1591 4256 c-47 -26 -50 -46 -51 -283 l0 -223 -201 0 -201 0 -29 -29
c-41 -41 -41 -98 0 -143 l29 -33 195 -3 195 -4 -14 -59 c-54 -232 -209 -450
-415 -582 -47 -30 -89 -63 -93 -72 -3 -9 -6 -35 -6 -57 0 -81 83 -122 163 -82
159 81 347 272 444 452 l40 72 19 -42 c93 -208 400 -498 527 -498 54 0 97 43
97 97 -1 56 -16 75 -115 141 -202 135 -345 340 -399 572 l-14 60 213 0 c117 0
226 3 244 6 81 16 110 116 52 175 l-29 29 -246 0 -246 0 0 220 c0 148 -4 227
-12 245 -22 49 -96 69 -147 41z"/>
</g>
</svg>
