<?xml version="1.0" standalone="no"?>
<!DOCTYPE svg PUBLIC "-//W3C//DTD SVG 20010904//EN"
 "http://www.w3.org/TR/2001/REC-SVG-20010904/DTD/svg10.dtd">
<svg version="1.0" xmlns="http://www.w3.org/2000/svg"
 width="512.000000pt" height="512.000000pt" viewBox="0 0 512.000000 512.000000"
 preserveAspectRatio="xMidYMid meet">
<metadata>
Created by potrace 1.16, written by Peter Selinger 2001-2019
</metadata>
<g transform="translate(0.000000,512.000000) scale(0.100000,-0.100000)"
fill="#000000" stroke="none">
<path d="M1597 5097 c-40 -32 -47 -72 -47 -254 l0 -163 -298 0 c-168 0 -324
-5 -358 -11 -213 -38 -405 -230 -443 -443 -6 -34 -11 -190 -11 -358 l0 -298
-162 0 c-90 0 -180 -5 -200 -10 -79 -22 -107 -130 -49 -188 39 -38 62 -42 252
-42 l159 0 0 -325 0 -325 -159 0 c-190 0 -213 -4 -252 -42 -24 -25 -29 -38
-29 -78 0 -40 5 -53 29 -78 39 -38 62 -42 252 -42 l159 0 0 -325 0 -325 -159
0 c-190 0 -213 -4 -252 -42 -58 -58 -30 -166 49 -188 20 -5 110 -10 200 -10
l162 0 0 -298 c0 -168 5 -324 11 -358 38 -213 230 -405 443 -443 34 -6 190
-11 358 -11 l298 0 0 -162 c0 -90 5 -180 10 -200 22 -79 130 -107 188 -49 38
39 42 62 42 252 l0 159 325 0 325 0 0 -159 c0 -190 4 -213 42 -252 25 -24 38
-29 78 -29 40 0 53 5 78 29 38 39 42 62 42 252 l0 159 325 0 325 0 0 -159 c0
-190 4 -213 42 -252 58 -58 166 -30 188 49 5 20 10 110 10 200 l0 162 298 0
c168 0 324 5 358 11 213 38 405 230 443 443 6 34 11 190 11 358 l0 298 163 0
c89 0 179 5 199 10 79 22 107 130 49 188 -39 38 -62 42 -252 42 l-159 0 0 325
0 325 159 0 c190 0 213 4 252 42 24 25 29 38 29 78 0 40 -5 53 -29 78 -39 38
-62 42 -252 42 l-159 0 0 325 0 325 159 0 c190 0 213 4 252 42 58 58 30 166
-49 188 -20 5 -110 10 -199 10 l-163 0 0 298 c0 168 -5 324 -11 358 -38 213
-230 405 -443 443 -34 6 -190 11 -358 11 l-298 0 0 163 c0 89 -5 179 -10 199
-22 79 -130 107 -188 49 -38 -39 -42 -62 -42 -252 l0 -159 -325 0 -325 0 0
159 c0 190 -4 213 -42 252 -25 24 -38 29 -78 29 -40 0 -53 -5 -78 -29 -38 -39
-42 -62 -42 -252 l0 -159 -325 0 -325 0 0 159 c0 190 -4 213 -42 252 -38 38
-108 41 -151 6z m2574 -657 c139 -27 242 -130 269 -270 14 -72 14 -3148 0
-3220 -27 -140 -130 -243 -269 -270 -74 -14 -3148 -14 -3222 0 -139 27 -242
130 -269 270 -14 73 -14 3148 0 3221 26 135 130 242 262 268 64 13 3163 13
3229 1z"/>
<path d="M1343 3996 c-88 -28 -159 -92 -204 -181 l-24 -50 0 -1205 0 -1205 25
-50 c34 -70 89 -126 157 -161 l58 -29 1205 0 1205 0 58 29 c68 35 123 91 157
161 l25 50 0 1205 0 1205 -29 58 c-35 68 -91 123 -161 157 l-50 25 -1190 2
c-959 1 -1198 -1 -1232 -11z m2373 -231 c56 -23 64 -56 64 -255 l0 -170 -1220
0 -1220 0 0 170 c0 196 9 232 62 255 50 22 2262 22 2314 0z m64 -1490 c0 -711
-2 -841 -15 -871 -23 -56 -56 -64 -255 -64 l-170 0 0 295 c0 329 -1 334 -67
361 -48 20 -1378 20 -1426 0 -66 -27 -67 -32 -67 -361 l0 -295 -170 0 c-199 0
-232 8 -255 64 -13 30 -15 160 -15 871 l0 835 1220 0 1220 0 0 -835z m-670
-715 l0 -220 -550 0 -550 0 0 220 0 220 550 0 550 0 0 -220z"/>
</g>
</svg>
