<?xml version="1.0" encoding="utf-8"?>
<!-- Generator: Adobe Illustrator 16.0.0, SVG Export Plug-In . SVG Version: 6.00 Build 0)  -->
<!DOCTYPE svg PUBLIC "-//W3C//DTD SVG 1.1//EN" "http://www.w3.org/Graphics/SVG/1.1/DTD/svg11.dtd">
<svg xmlns="http://www.w3.org/2000/svg" xmlns:xlink="http://www.w3.org/1999/xlink" version="1.1" id="Layer_1" x="0px" y="0px" width="512" height="512" viewBox="0 0 512 512" enable-background="new 0 0 512 512" xml:space="preserve">
<g id="_x31_2._hand_x2C__fan_x2C__japan_x2C__culture_x2C__country_x2C__civilization">
	<g>
		<g>
			<path fill="#FFD2A6" d="M228.325,387.977l0.086,0.211c5.515-9.631,15.778-16.209,27.667-16.209     c11.834,0,22.043,6.5,27.582,16.045l0.016-0.047l74.674-46.516c-21.09-34.424-58.942-57.467-102.271-57.467     c-43.344,0-81.204,23.059-102.286,57.506L228.325,387.977z"/>
		</g>
	</g>
	<g>
		<g>
			<path fill="#965353" d="M283.675,387.977L256,403.973l-27.675-15.996c7.038-12.24,21.676-18.717,35.994-14.881     C272.794,375.338,279.598,380.859,283.675,387.977z"/>
		</g>
	</g>
	<g>
		<g>
			<path fill="#E6E9ED" d="M340.781,319.105l124.461-124.454c16.24,16.157,30.558,34.154,42.633,53.748v0.078l-149.573,92.866     c-4.96-8.076-10.795-15.512-17.599-22.152L340.781,319.105z"/>
		</g>
	</g>
	<g>
		<g>
			<path fill="#F5F7FA" d="M465.242,194.652L340.781,319.105l-0.078,0.086c-7.279-7.357-15.599-13.842-24.714-19.121L404.051,147.7     C426.531,160.659,447.082,176.496,465.242,194.652z"/>
		</g>
	</g>
	<g>
		<g>
			<path fill="#E6E9ED" d="M404.051,147.7L315.989,300.07c-8.96-5.195-18.716-9.279-28.956-11.998l45.594-170.046     C357.981,124.825,381.898,134.823,404.051,147.7z"/>
		</g>
	</g>
	<g>
		<g>
			<path fill="#F5F7FA" d="M332.627,118.026l-45.594,170.046c-9.92-2.641-20.316-4.078-31.034-4.078V108.027h0.078     C282.558,108.027,308.232,111.546,332.627,118.026z"/>
		</g>
	</g>
	<g>
		<g>
			<path fill="#E6E9ED" d="M224.966,288.072l-45.593-170.046c24.394-6.558,50.069-9.999,76.548-9.999H256v175.967     C245.283,283.994,234.886,285.432,224.966,288.072z"/>
		</g>
	</g>
	<g>
		<g>
			<path fill="#F5F7FA" d="M179.373,118.026l45.593,170.046c-10.24,2.719-19.996,6.803-28.956,11.998l-87.984-152.449     C130.101,134.823,154.097,124.825,179.373,118.026z"/>
		</g>
	</g>
	<g>
		<g>
			<path fill="#E6E9ED" d="M108.027,147.622l87.984,152.449c-9.116,5.201-17.434,11.678-24.792,19.035L46.757,194.652     C64.917,176.414,85.554,160.577,108.027,147.622z"/>
		</g>
	</g>
	<g>
		<g>
			<path fill="#F5F7FA" d="M46.757,194.652l124.461,124.454c-6.639,6.641-12.482,13.998-17.442,22.082l-0.078,0.078L4.125,248.478     V248.4C16.2,228.806,30.518,210.809,46.757,194.652z"/>
		</g>
	</g>
	<g>
		<g>
			<polygon fill="#FFFFFF" points="256.078,108.027 256.078,283.986 260.562,284.072 267.1,108.238    "/>
		</g>
	</g>
	<g>
		<g>
			<polygon fill="#FFFFFF" points="190.152,115.377 179.451,118.026 225.044,288.064 229.395,286.994    "/>
		</g>
	</g>
	<g>
		<g>
			<polygon fill="#FFFFFF" points="117.751,142.302 108.105,147.614 196.089,300.062 200.018,297.906    "/>
		</g>
	</g>
	<g>
		<g>
			<circle fill="#ED5565" cx="256.078" cy="200.01" r="35.993"/>
		</g>
	</g>
	<g>
		<g>
			<polygon fill="#FFFFFF" points="54.779,187.029 54.701,187.029 46.757,194.652 46.835,194.652 171.296,319.105 174.53,316.02         "/>
		</g>
	</g>
	<g opacity="0.3">
		<g>
			<path fill="#FFFFFF" d="M262.374,235.371l2.601-70.112c-2.858-0.734-5.803-1.242-8.897-1.242v71.987     C258.234,236.004,260.319,235.73,262.374,235.371z"/>
		</g>
	</g>
	<g>
		<g>
			<polygon fill="#FFFFFF" points="465.398,194.652 465.32,194.652 340.859,319.105 343.977,322.316 472.976,202.573      473.054,202.573    "/>
		</g>
	</g>
	<g>
		<g>
			<polygon fill="#FFFFFF" points="404.129,147.614 404.129,147.692 316.067,300.062 319.91,302.367 413.572,153.371      413.572,153.292    "/>
		</g>
	</g>
	<g>
		<g>
			<polygon fill="#FFFFFF" points="332.705,118.026 287.111,288.064 291.424,289.299 343.297,121.072    "/>
		</g>
	</g>
	<g>
		<g>
			<polygon fill="#FFFFFF" points="10.178,239.23 4.203,248.47 153.776,341.258 156.206,337.508    "/>
		</g>
	</g>
	<g opacity="0.2">
		<g>
			<path d="M358.349,341.461l-74.674,46.516l-27.636,15.996l98.288-68.557C355.716,337.398,357.075,339.391,358.349,341.461z"/>
		</g>
	</g>
	<g opacity="0.5">
		<g>
			<path fill="#FFFFFF" d="M153.698,341.461l74.673,46.516l27.636,15.996l-98.286-68.557     C156.331,337.398,154.971,339.391,153.698,341.461z"/>
		</g>
	</g>
	<g opacity="0.2">
		<g>
			<path fill="#FFFFFF" d="M228.325,388.258L256,404.254l-20.77-24.27C232.512,382.312,230.153,385.078,228.325,388.258z"/>
		</g>
	</g>
	<g opacity="0.2">
		<g>
			<path d="M283.683,388.258L256,404.254l20.778-24.27C279.488,382.312,281.854,385.078,283.683,388.258z"/>
		</g>
	</g>
	<g>
		<g>
			<g>
				<path fill="#3A3847" d="M358.302,345.344c-1.344,0-2.656-0.68-3.413-1.906c-4.875-7.951-10.592-15.146-16.974-21.387      c-7.194-7.264-15.224-13.482-23.926-18.52c-8.795-5.102-18.208-9-27.979-11.592c-19.66-5.234-40.36-5.234-60.02,0      c-9.771,2.592-19.184,6.49-27.972,11.592c-8.615,4.912-16.669,11.1-23.972,18.402c-6.459,6.459-12.13,13.639-16.856,21.348      c-1.164,1.875-3.632,2.477-5.499,1.312c-1.891-1.148-2.477-3.617-1.32-5.5c5.054-8.24,11.115-15.918,18.021-22.816      c7.803-7.803,16.434-14.426,25.644-19.684c9.373-5.436,19.441-9.607,29.9-12.389c20.996-5.592,43.133-5.592,64.129,0      c10.451,2.781,20.527,6.953,29.932,12.404c9.319,5.398,17.911,12.045,25.551,19.77c6.811,6.648,12.935,14.357,18.16,22.871      c1.156,1.883,0.57,4.352-1.312,5.5C359.738,345.156,359.021,345.344,358.302,345.344z"/>
			</g>
		</g>
		<g>
			<g>
				<path fill="#3A3847" d="M256,287.994c-2.21,0-3.999-1.789-3.999-4V108.027c0-2.21,1.789-4,3.999-4c2.211,0,4,1.789,4,4v175.967      C259.999,286.205,258.211,287.994,256,287.994z"/>
			</g>
		</g>
		<g>
			<g>
				<path fill="#3A3847" d="M256,359.98c-2.21,0-3.999-1.789-3.999-3.998v-55.99c0-2.211,1.789-4,3.999-4c2.211,0,4,1.789,4,4v55.99      C259.999,358.191,258.211,359.98,256,359.98z"/>
			</g>
		</g>
		<g>
			<g>
				<path fill="#3A3847" d="M224.958,292.072c-1.766,0-3.375-1.18-3.858-2.961l-45.586-170.051      c-0.578-2.132,0.695-4.328,2.828-4.897c2.14-0.578,4.319,0.691,4.897,2.828l45.585,170.042c0.578,2.141-0.695,4.328-2.827,4.906      C225.654,292.025,225.302,292.072,224.958,292.072z"/>
			</g>
		</g>
		<g>
			<g>
				<path fill="#3A3847" d="M243.682,362.059c-1.765,0-3.382-1.18-3.859-2.969l-14.56-54.543c-0.57-2.133,0.695-4.328,2.828-4.898      c2.125-0.523,4.327,0.703,4.897,2.836l14.56,54.545c0.57,2.131-0.695,4.326-2.836,4.896      C244.369,362.012,244.025,362.059,243.682,362.059z"/>
			</g>
		</g>
		<g>
			<g>
				<path fill="#3A3847" d="M196.019,304.07c-1.382,0-2.726-0.719-3.468-2l-87.983-152.449c-1.109-1.914-0.453-4.359,1.46-5.464      c1.906-1.105,4.359-0.449,5.468,1.464l87.984,152.448c1.101,1.914,0.445,4.359-1.469,5.461      C197.385,303.898,196.698,304.07,196.019,304.07z"/>
			</g>
		</g>
		<g>
			<g>
				<path fill="#3A3847" d="M232.012,366.457c-1.383,0-2.727-0.719-3.469-2l-27.995-48.547c-1.109-1.912-0.445-4.357,1.46-5.467      c1.922-1.094,4.359-0.445,5.468,1.469l27.995,48.545c1.102,1.914,0.445,4.359-1.469,5.469      C233.371,366.285,232.684,366.457,232.012,366.457z"/>
			</g>
		</g>
		<g>
			<g>
				<path fill="#3A3847" d="M171.218,323.105c-1.023,0-2.046-0.391-2.827-1.172L44.148,197.695      c-0.875-0.734-1.429-1.824-1.429-3.043c0-2.21,1.75-3.999,3.96-3.999h0.078c1.062,0,2.077,0.422,2.827,1.172l124.461,124.453      c1.562,1.562,1.562,4.094,0,5.656C173.265,322.715,172.242,323.105,171.218,323.105z"/>
			</g>
		</g>
		<g>
			<g>
				<path fill="#3A3847" d="M222.084,374.057c-1.023,0-2.046-0.391-2.828-1.172l-39.594-39.594c-1.562-1.562-1.562-4.094,0-5.656      s4.093-1.562,5.655,0l39.594,39.596c1.562,1.561,1.562,4.092,0,5.654C224.13,373.666,223.107,374.057,222.084,374.057z"/>
			</g>
		</g>
		<g>
			<g>
				<path fill="#3A3847" d="M256,407.973c-0.68,0-1.367-0.172-2-0.539l-27.674-15.998c-1.914-1.102-2.57-3.545-1.469-5.459      s3.546-2.578,5.468-1.461L258,400.512c1.914,1.102,2.569,3.547,1.469,5.461C258.727,407.254,257.383,407.973,256,407.973z"/>
			</g>
		</g>
		<g>
			<g>
				<path fill="#3A3847" d="M256.007,407.973c-1.382,0-2.726-0.719-3.468-2c-1.109-1.914-0.453-4.359,1.46-5.461l27.675-15.996      c1.906-1.117,4.358-0.453,5.468,1.461c1.102,1.914,0.445,4.357-1.469,5.459L258,407.434      C257.375,407.801,256.687,407.973,256.007,407.973z"/>
			</g>
		</g>
		<g>
			<g>
				<path fill="#3A3847" d="M214.484,383.344c-0.719,0-1.445-0.195-2.094-0.594l-48.553-29.924c-1.882-1.164-2.46-3.625-1.304-5.508      c1.156-1.881,3.616-2.451,5.499-1.303l48.553,29.924c1.882,1.164,2.46,3.623,1.304,5.506      C217.132,382.672,215.828,383.344,214.484,383.344z"/>
			</g>
		</g>
		<g>
			<g>
				<path fill="#3A3847" d="M297.594,383.305c-1.336,0-2.64-0.672-3.397-1.883c-1.164-1.875-0.594-4.342,1.281-5.514l48.476-30.189      c1.866-1.156,4.335-0.586,5.506,1.281c1.164,1.873,0.594,4.342-1.28,5.514l-48.476,30.189      C299.047,383.109,298.32,383.305,297.594,383.305z"/>
			</g>
		</g>
		<g>
			<g>
				<path fill="#3A3847" d="M340.781,323.105c-1.023,0-2.047-0.391-2.828-1.172c-1.562-1.562-1.562-4.094,0-5.656l124.462-124.453      c2.312-2.312,6.866-0.445,6.866,2.827c0,1.328-0.633,2.504-1.617,3.23L343.609,321.934      C342.828,322.715,341.805,323.105,340.781,323.105z"/>
			</g>
		</g>
		<g>
			<g>
				<path fill="#3A3847" d="M289.994,374.057c-1.023,0-2.039-0.391-2.82-1.172c-1.57-1.555-1.57-4.094-0.008-5.654l39.509-39.596      c1.562-1.562,4.093-1.562,5.655,0c1.57,1.555,1.57,4.094,0.008,5.656l-39.509,39.594      C292.048,373.666,291.018,374.057,289.994,374.057z"/>
			</g>
		</g>
		<g>
			<g>
				<path fill="#3A3847" d="M315.989,304.07c-0.68,0-1.367-0.172-2-0.539c-1.913-1.102-2.569-3.547-1.46-5.461l87.968-152.206      c0.664-1.3,2.007-2.203,3.554-2.203c2.211,0,3.999,1.75,3.999,3.96v0.078c0,0.703-0.179,1.395-0.53,2L319.457,302.07      C318.715,303.352,317.371,304.07,315.989,304.07z"/>
			</g>
		</g>
		<g>
			<g>
				<path fill="#3A3847" d="M279.996,366.379c-0.68,0-1.367-0.172-2-0.539c-1.914-1.102-2.57-3.547-1.461-5.461l27.995-48.467      c1.102-1.914,3.554-2.586,5.46-1.461c1.914,1.102,2.57,3.547,1.469,5.459l-27.995,48.469      C282.722,365.66,281.378,366.379,279.996,366.379z"/>
			</g>
		</g>
		<g>
			<g>
				<path fill="#3A3847" d="M228.317,391.975c-0.671,0-1.359-0.172-1.991-0.531c-1.914-1.102-2.57-3.545-1.469-5.459      c8.1-14.084,24.753-20.973,40.493-16.756c9.256,2.453,17.005,8.406,21.793,16.756c1.102,1.922,0.438,4.357-1.477,5.459      c-1.905,1.094-4.358,0.445-5.459-1.477c-3.719-6.49-9.725-11.105-16.911-13.004c-12.264-3.297-25.207,2.061-31.502,13.004      C231.051,391.256,229.7,391.975,228.317,391.975z"/>
			</g>
		</g>
		<g>
			<g>
				<path fill="#3A3847" d="M287.041,292.072c-0.344,0-0.695-0.047-1.039-0.133c-2.132-0.578-3.405-2.766-2.827-4.906      l45.585-170.042c0.578-2.137,2.789-3.402,4.898-2.828c2.132,0.57,3.405,2.765,2.827,4.897L290.9,289.111      C290.416,290.893,288.807,292.072,287.041,292.072z"/>
			</g>
		</g>
		<g>
			<g>
				<path fill="#3A3847" d="M268.404,361.66c-0.344,0-0.695-0.047-1.039-0.133c-2.133-0.57-3.398-2.766-2.828-4.896l14.475-54.146      c0.57-2.133,2.78-3.352,4.897-2.836c2.132,0.57,3.397,2.766,2.827,4.898l-14.474,54.145      C271.786,360.48,270.17,361.66,268.404,361.66z"/>
			</g>
		</g>
		<g>
			<g>
				<path fill="#3A3847" d="M4.125,252.399c-0.719,0-1.445-0.195-2.094-0.593c-1.882-1.156-2.468-3.625-1.312-5.503      c12.146-19.704,26.69-38.036,43.218-54.486c18.396-18.478,39.29-34.518,62.098-47.659      c22.503-13.049,46.835-23.145,72.299-29.995c25.019-6.725,51.123-10.135,77.587-10.135c2.211,0,4,1.789,4,4s-1.789,4-4,4      c-25.761,0-51.17,3.315-75.509,9.861c-24.792,6.667-48.468,16.489-70.377,29.194c-22.199,12.794-42.531,28.401-60.442,46.39      c-16.099,16.021-30.244,33.856-42.062,53.029C6.772,251.728,5.468,252.399,4.125,252.399z"/>
			</g>
		</g>
		<g>
			<g>
				<path fill="#3A3847" d="M153.698,345.266c-0.719,0-1.453-0.195-2.109-0.602L2.015,251.876c-1.875-1.164-2.453-3.632-1.289-5.507      c1.171-1.871,3.632-2.449,5.506-1.289l149.574,92.787c1.875,1.164,2.453,3.633,1.289,5.508      C156.338,344.594,155.034,345.266,153.698,345.266z"/>
			</g>
		</g>
		<g>
			<g>
				<path fill="#3A3847" d="M507.875,252.399c-1.343,0-2.647-0.671-3.405-1.897c-11.817-19.173-25.964-37.009-42.047-53.014      c-18.06-18.056-38.36-33.639-60.364-46.324c-22.011-12.791-45.718-22.64-70.471-29.276c-24.637-6.542-50.038-9.861-75.51-9.861      c-2.21,0-3.999-1.789-3.999-4s1.789-4,3.999-4c26.16,0,52.264,3.41,77.573,10.131c25.448,6.823,49.803,16.942,72.416,30.084      c22.598,13.028,43.461,29.037,62.004,47.581c16.521,16.442,31.064,34.774,43.211,54.478c1.156,1.878,0.57,4.347-1.312,5.503      C509.32,252.204,508.594,252.399,507.875,252.399z"/>
			</g>
		</g>
		<g>
			<g>
				<path fill="#3A3847" d="M358.302,345.344c-1.336,0-2.641-0.672-3.397-1.891c-1.164-1.875-0.594-4.344,1.288-5.508      l149.574-92.865c1.874-1.164,4.343-0.586,5.507,1.289s0.586,4.343-1.289,5.507L360.41,344.742      C359.754,345.148,359.021,345.344,358.302,345.344z"/>
			</g>
		</g>
		<g>
			<g>
				<path fill="#3A3847" d="M267.998,238.003c-1.648,0-3.188-1.023-3.766-2.664c-0.741-2.082,0.352-4.367,2.43-5.104      c12.811-4.539,21.41-16.684,21.41-30.225c0-13.54-8.6-25.687-21.41-30.225c-2.078-0.738-3.171-3.023-2.43-5.104      c0.742-2.082,3.039-3.16,5.102-2.434c15.996,5.667,26.736,20.844,26.736,37.763c0,16.919-10.74,32.096-26.736,37.763      C268.896,237.929,268.443,238.003,267.998,238.003z"/>
			</g>
		</g>
		<g>
			<g>
				<path fill="#3A3847" d="M244.002,237.925c-0.445,0-0.898-0.074-1.343-0.23c-15.896-5.667-26.573-20.809-26.573-37.685      c0-16.875,10.678-32.018,26.573-37.685c2.093-0.73,4.366,0.344,5.116,2.426c0.734,2.082-0.352,4.37-2.43,5.112      c-12.716,4.53-21.262,16.646-21.262,30.146c0,13.502,8.545,25.616,21.262,30.147c2.078,0.742,3.164,3.031,2.43,5.112      C247.189,236.906,245.65,237.925,244.002,237.925z"/>
			</g>
		</g>
	</g>
</g>
</svg>
