<?xml version="1.0" standalone="no"?>
<!DOCTYPE svg PUBLIC "-//W3C//DTD SVG 20010904//EN"
 "http://www.w3.org/TR/2001/REC-SVG-20010904/DTD/svg10.dtd">
<svg version="1.0" xmlns="http://www.w3.org/2000/svg"
 width="512.000000pt" height="512.000000pt" viewBox="0 0 512.000000 512.000000"
 preserveAspectRatio="xMidYMid meet">
<metadata>
Created by potrace 1.16, written by Peter Selinger 2001-2019
</metadata>
<g transform="translate(0.000000,512.000000) scale(0.100000,-0.100000)"
fill="#FFCC67" stroke="none">
<path d="M580 2560 l0 -2560 1980 0 1980 0 -1 2208 -1 2207 -365 353 -364 352
-1615 0 -1614 0 0 -2560z m3040 1940 l0 -270 285 0 285 0 0 -1940 0 -1940
-1630 0 -1630 0 0 2210 0 2210 1345 0 1345 0 0 -270z"/>
<path d="M1985 2909 c-182 -27 -329 -168 -375 -359 -17 -67 -17 -229 -1 -290
30 -115 98 -224 169 -273 284 -196 668 -84 748 218 27 101 36 95 -139 95
l-153 0 -11 -43 c-28 -105 -132 -144 -228 -86 -110 66 -123 349 -21 448 63 61
155 60 215 -1 17 -17 34 -47 37 -65 l6 -33 154 0 154 0 -6 33 c-38 211 -148
326 -341 356 -81 12 -122 12 -208 0z"/>
<path d="M2560 2883 c1 -10 65 -232 143 -493 l142 -475 172 -3 172 -2 45 142
c167 532 256 821 256 834 0 12 -25 14 -156 12 l-157 -3 -77 -289 -76 -289 -79
292 -78 291 -154 0 c-139 0 -153 -2 -153 -17z"/>
</g>
</svg>
