<?xml version="1.0" standalone="no"?>
<!DOCTYPE svg PUBLIC "-//W3C//DTD SVG 20010904//EN"
 "http://www.w3.org/TR/2001/REC-SVG-20010904/DTD/svg10.dtd">
<svg version="1.0" xmlns="http://www.w3.org/2000/svg"
 width="512.000000pt" height="512.000000pt" viewBox="0 0 512.000000 512.000000"
 preserveAspectRatio="xMidYMid meet">
<metadata>
Created by potrace 1.16, written by Peter Selinger 2001-2019
</metadata>
<g transform="translate(0.000000,512.000000) scale(0.100000,-0.100000)"
fill="#000000" stroke="none">
<path d="M2433 4466 c-152 -49 -262 -189 -271 -346 -4 -69 -2 -80 17 -99 19
-19 32 -21 161 -21 l140 0 0 -80 0 -80 -100 0 c-141 0 -140 1 -140 -178 l0
-139 -117 -6 c-358 -20 -690 -173 -959 -441 -282 -283 -426 -609 -443 -1005
l-6 -154 -42 -12 c-149 -44 -261 -188 -271 -346 -4 -68 -2 -79 17 -98 l21 -21
860 0 860 0 0 -80 0 -80 -857 -2 -858 -3 -60 -29 c-77 -38 -153 -114 -191
-191 -27 -55 -29 -70 -32 -185 -3 -141 7 -171 70 -210 33 -20 56 -20 2328 -20
2272 0 2295 0 2328 20 63 39 73 69 70 210 -3 115 -5 130 -32 185 -38 77 -114
153 -191 191 l-60 29 -857 3 -858 2 0 80 0 80 860 0 860 0 21 21 c19 19 21 30
17 98 -10 158 -122 302 -271 346 l-42 12 -6 154 c-17 396 -161 722 -443 1005
-269 268 -602 422 -958 441 l-118 6 0 139 c0 179 1 178 -140 178 l-100 0 0 80
0 80 140 0 c129 0 142 2 161 21 19 19 21 30 17 99 -8 138 -93 262 -223 325
-52 26 -72 30 -160 32 -64 2 -115 -2 -142 -11z m225 -175 c44 -22 88 -65 108
-103 l15 -28 -221 0 -221 0 15 28 c19 37 63 80 106 103 48 25 148 25 198 0z
m62 -691 l0 -80 -160 0 -160 0 0 80 0 80 160 0 160 0 0 -80z m248 -250 c458
-36 846 -275 1077 -666 107 -181 169 -380 185 -599 5 -72 10 -138 10 -147 0
-17 -87 -18 -1680 -18 -1593 0 -1680 1 -1680 18 2 96 23 289 41 364 94 400
357 730 727 913 156 77 317 121 486 134 147 12 691 12 834 1z m1437 -1613 c46
-21 100 -70 121 -109 l15 -28 -1981 0 -1981 0 15 28 c17 31 71 84 104 101 13
7 42 16 65 21 23 4 843 7 1822 6 1691 -1 1782 -2 1820 -19z m-1605 -377 l0
-80 -240 0 -240 0 0 80 0 80 240 0 240 0 0 -80z m1850 -266 c89 -42 134 -112
146 -228 l7 -66 -2243 0 -2243 0 7 66 c8 82 27 129 69 172 39 41 75 61 130 72
23 4 951 7 2062 6 l2020 -1 45 -21z"/>
<path d="M988 3767 c-303 -217 -521 -473 -686 -804 -36 -73 -64 -134 -61 -136
2 -2 38 -17 79 -34 l74 -31 61 122 c34 66 79 148 100 181 141 220 365 451 565
582 30 20 57 38 59 39 7 6 -81 144 -93 144 -6 0 -50 -28 -98 -63z"/>
<path d="M3980 3760 c-24 -39 -41 -72 -39 -74 2 -1 29 -19 59 -39 272 -179
540 -491 684 -799 l41 -87 75 32 c41 17 77 32 79 34 8 6 -126 267 -180 348
-152 234 -338 428 -567 592 -48 35 -92 63 -98 63 -7 0 -31 -32 -54 -70z"/>
<path d="M1156 3493 c-179 -126 -388 -359 -510 -565 -51 -87 -131 -257 -124
-262 7 -6 139 -56 146 -56 5 0 39 60 76 133 36 72 97 175 134 227 82 117 248
286 362 370 47 34 86 63 88 65 3 3 -88 146 -92 145 -1 0 -36 -26 -80 -57z"/>
<path d="M3836 3479 c-26 -39 -46 -72 -44 -74 2 -2 33 -25 71 -53 221 -161
399 -374 524 -629 31 -62 59 -113 64 -113 8 0 140 50 147 56 7 5 -73 174 -123
259 -134 229 -342 454 -546 593 l-47 31 -46 -70z"/>
</g>
</svg>
