<?xml version="1.0" standalone="no"?>
<!DOCTYPE svg PUBLIC "-//W3C//DTD SVG 20010904//EN"
 "http://www.w3.org/TR/2001/REC-SVG-20010904/DTD/svg10.dtd">
<svg version="1.0" xmlns="http://www.w3.org/2000/svg"
 width="512.000000pt" height="512.000000pt" viewBox="0 0 512.000000 512.000000"
 preserveAspectRatio="xMidYMid meet">
<metadata>
Created by potrace 1.16, written by Peter Selinger 2001-2019
</metadata>
<g transform="translate(0.000000,512.000000) scale(0.100000,-0.100000)"
fill="#000000" stroke="none">
<path d="M65 4877 c-17 -8 -39 -27 -49 -43 -18 -26 -18 -46 -13 -308 14 -625
99 -1063 273 -1395 158 -301 354 -464 649 -540 285 -74 645 -45 900 73 l73 34
12 -27 c190 -406 328 -980 380 -1586 14 -167 30 -497 30 -638 0 -138 13 -176
65 -201 41 -20 68 -20 109 -1 55 26 63 52 70 240 24 616 121 1082 318 1520 40
90 137 272 177 334 7 11 17 8 49 -20 258 -219 783 -293 1168 -164 252 85 423
240 568 516 173 331 260 771 273 1395 8 390 27 371 -347 360 -691 -20 -1167
-125 -1500 -332 -181 -112 -282 -220 -366 -389 -152 -308 -160 -726 -21 -1064
23 -57 28 -77 19 -90 -147 -212 -310 -559 -395 -840 l-34 -114 -23 124 c-73
403 -204 832 -332 1083 l-25 50 34 45 c48 62 109 186 143 290 87 267 85 628
-5 867 -84 223 -204 367 -415 498 -336 209 -824 315 -1520 331 -190 5 -241 3
-265 -8z m450 -242 c719 -27 1253 -215 1444 -508 135 -207 169 -552 84 -847
-17 -60 -69 -180 -77 -180 -3 0 -32 40 -65 88 -177 264 -356 443 -668 665
-144 103 -169 114 -223 98 -52 -15 -80 -56 -80 -114 0 -59 22 -86 153 -178
269 -191 430 -346 583 -564 62 -87 116 -176 111 -181 -2 -2 -33 -17 -70 -34
-146 -66 -376 -99 -553 -80 -217 23 -374 89 -489 205 -256 256 -395 739 -422
1468 l-6 178 64 -5 c35 -3 132 -8 214 -11z m4365 -532 c0 -49 -5 -155 -10
-238 -31 -456 -99 -779 -214 -1021 -130 -272 -268 -401 -496 -467 -248 -72
-558 -49 -775 58 -49 24 -109 61 -133 82 l-44 38 90 101 c207 232 432 405 740
567 62 32 120 70 129 83 22 34 12 108 -18 140 -28 30 -85 47 -125 35 -38 -11
-189 -87 -284 -143 -195 -116 -359 -246 -531 -419 l-126 -127 -23 92 c-59 244
-27 556 76 743 136 245 489 424 989 502 217 33 354 45 718 59 l37 2 0 -87z"/>
</g>
</svg>
