<?xml version="1.0" standalone="no"?>
<!DOCTYPE svg PUBLIC "-//W3C//DTD SVG 20010904//EN"
 "http://www.w3.org/TR/2001/REC-SVG-20010904/DTD/svg10.dtd">
<svg version="1.0" xmlns="http://www.w3.org/2000/svg"
 width="512.000000pt" height="512.000000pt" viewBox="0 0 512.000000 512.000000"
 preserveAspectRatio="xMidYMid meet">
<metadata>
Created by potrace 1.16, written by Peter Selinger 2001-2019
</metadata>
<g transform="translate(0.000000,512.000000) scale(0.100000,-0.100000)"
fill="#000000" stroke="none">
<path d="M4607 5109 c-22 -13 -47 -61 -47 -91 0 -16 -41 -63 -136 -159 l-136
-136 -41 8 c-73 14 -181 10 -261 -11 -166 -42 -100 17 -1261 -1141 l-1060
-1057 -45 1 c-86 1 -106 -13 -293 -201 -156 -157 -177 -182 -177 -211 0 -39
23 -87 49 -101 26 -13 77 -13 104 1 12 6 87 76 167 155 l145 144 348 -348 347
-347 -560 -560 -560 -560 -347 347 -347 347 112 115 c110 113 112 115 112 161
0 64 -39 105 -101 105 -43 0 -44 -1 -317 -272 -151 -150 -280 -287 -288 -305
-20 -47 -18 -137 5 -181 24 -46 754 -774 798 -796 40 -20 133 -21 176 -2 18 8
343 326 774 757 732 735 741 745 752 795 5 28 7 61 4 73 -5 20 138 167 1054
1084 1160 1163 1101 1097 1143 1263 21 80 25 188 11 261 l-8 41 136 136 c96
95 143 136 159 136 31 0 79 26 92 49 5 11 10 39 10 63 0 42 -2 45 -203 245
l-203 203 -44 0 c-25 0 -53 -5 -63 -11z m163 -344 l65 -65 -104 -104 -104
-104 -31 37 c-17 21 -48 51 -68 67 l-36 29 101 103 c56 56 104 102 107 102 3
0 35 -29 70 -65z m-468 -274 c177 -84 266 -284 209 -470 -12 -39 -25 -71 -29
-71 -13 0 -536 529 -530 535 4 4 33 15 65 26 88 29 199 21 285 -20z m-29 -773
l-68 -68 -277 277 -278 278 67 67 68 68 277 -277 278 -278 -67 -67z m-670 234
l97 -97 -238 -238 -237 -237 -100 100 -100 100 235 235 c129 129 237 235 240
235 3 0 49 -44 103 -98z m215 -689 l-238 -238 -100 100 -100 100 237 237 238
238 100 -100 100 -100 -237 -237z m-453 -453 l-65 -65 -277 277 -278 278 65
65 65 65 277 -277 278 -278 -65 -65z m-595 -595 l-380 -380 -277 278 -278 277
380 380 380 380 277 -277 278 -278 -380 -380z m-1797 -1937 l-68 -68 -347 347
-348 348 67 67 68 68 347 -347 348 -348 -67 -67z"/>
<path d="M870 1863 c-22 -20 -33 -40 -37 -70 -5 -39 -2 -46 30 -78 25 -25 44
-35 66 -35 64 0 111 45 111 105 0 91 -103 138 -170 78z"/>
<path d="M1458 1837 c-70 -20 -107 -50 -285 -229 -191 -193 -213 -228 -213
-349 0 -177 123 -299 301 -299 121 0 160 25 367 233 201 204 216 228 216 352
0 67 -4 88 -26 130 -31 60 -101 128 -155 150 -53 22 -148 28 -205 12z m149
-228 c30 -29 38 -71 20 -106 -9 -15 -85 -97 -170 -180 -147 -146 -157 -153
-194 -153 -56 0 -93 37 -93 93 0 37 7 47 148 189 81 83 161 159 177 170 36 23
79 17 112 -13z"/>
</g>
</svg>
