<?xml version="1.0" standalone="no"?>
<!DOCTYPE svg PUBLIC "-//W3C//DTD SVG 20010904//EN"
 "http://www.w3.org/TR/2001/REC-SVG-20010904/DTD/svg10.dtd">
<svg version="1.0" xmlns="http://www.w3.org/2000/svg"
 width="512.000000pt" height="512.000000pt" viewBox="0 0 512.000000 512.000000"
 preserveAspectRatio="xMidYMid meet">
<metadata>
Created by potrace 1.16, written by Peter Selinger 2001-2019
</metadata>
<g transform="translate(0.000000,512.000000) scale(0.100000,-0.100000)"
fill="#000000" stroke="none">
<path d="M3930 4873 c-53 -9 -128 -37 -195 -73 -105 -56 -103 -56 -197 -11
-192 92 -394 70 -540 -59 -193 -169 -198 -480 -12 -663 l39 -39 -2 -96 c0 -54
-9 -133 -18 -177 -18 -85 -73 -240 -82 -231 -3 3 0 34 8 68 19 84 16 237 -5
318 -43 163 -183 375 -303 456 -109 74 -158 88 -313 89 -122 0 -141 -2 -195
-25 -77 -33 -154 -84 -233 -155 -160 -146 -251 -329 -252 -506 0 -61 -2 -67
-23 -73 -39 -9 -146 -84 -197 -137 -45 -47 -101 -144 -115 -200 l-7 -26 -48
46 c-134 128 -315 191 -545 191 -202 0 -304 -37 -421 -154 -128 -128 -170
-246 -161 -461 9 -233 66 -374 208 -518 86 -87 87 -88 78 -125 -5 -20 -9 -78
-9 -128 0 -215 96 -362 307 -465 99 -49 102 -51 123 -103 11 -29 43 -90 70
-136 l50 -83 -43 -46 c-23 -25 -54 -61 -67 -79 l-26 -32 -174 70 c-206 84
-246 91 -310 58 -99 -51 -129 -168 -65 -262 l24 -36 -55 0 c-71 0 -119 -23
-151 -71 -46 -70 -40 -155 15 -221 34 -40 78 -58 143 -58 l52 0 -21 -22 c-70
-76 -49 -210 42 -263 72 -42 114 -36 320 46 l178 72 26 -34 c76 -101 200 -193
305 -228 133 -45 122 -45 652 29 270 37 933 130 1475 205 1100 153 1067 146
1119 230 16 26 43 52 71 66 161 85 410 339 410 417 0 44 -18 62 -60 62 -37 0
-43 -4 -85 -63 -59 -81 -173 -196 -245 -246 l-58 -41 -6 25 c-9 37 -66 96
-111 116 -25 11 -316 59 -787 130 l-747 113 -30 96 c-32 99 -54 213 -66 338
l-7 73 49 52 c150 159 239 366 250 580 l6 108 51 46 c60 54 158 119 238 159
l56 27 54 -48 c29 -26 81 -61 116 -78 34 -17 62 -34 62 -37 0 -3 -34 -26 -77
-50 -101 -57 -149 -108 -169 -178 -43 -147 38 -227 176 -175 34 13 81 17 190
18 132 2 151 4 210 28 35 14 65 25 66 24 1 -1 9 -17 19 -36 27 -54 94 -120
164 -161 66 -38 128 -96 170 -157 32 -47 87 -62 137 -37 48 24 80 70 94 137
13 64 -4 135 -55 239 -33 67 -33 70 -12 64 45 -12 183 -17 228 -8 l46 9 34
-51 c39 -60 91 -177 116 -261 14 -47 17 -99 18 -241 0 -138 3 -185 14 -198 19
-23 74 -21 97 5 17 19 19 38 19 208 0 164 -3 195 -23 264 -29 101 -65 187
-108 258 -19 31 -34 59 -34 61 0 3 22 19 48 36 26 17 73 58 105 91 49 52 57
65 57 99 0 28 -7 45 -25 62 -25 23 -26 23 -104 11 -115 -19 -150 -8 -263 77
-98 74 -175 104 -281 110 l-89 5 6 36 c3 20 9 75 12 123 l7 87 31 6 c17 4 63
22 102 41 222 105 316 352 223 586 -25 65 -48 98 -120 174 -32 34 -61 73 -65
88 -4 17 1 57 14 105 46 166 36 312 -31 450 -63 129 -200 236 -344 266 -64 14
-158 17 -213 8z m254 -161 c85 -40 149 -100 186 -176 56 -114 62 -224 18 -364
-39 -126 -13 -215 91 -316 28 -27 63 -74 79 -105 24 -49 27 -68 27 -151 0
-111 -15 -150 -83 -218 -37 -38 -159 -108 -170 -98 -2 2 -8 35 -13 72 -24 174
-70 254 -144 254 -21 0 -70 -10 -108 -22 -68 -22 -69 -22 -83 -3 -16 22 -19
91 -4 100 16 10 11 71 -7 94 -12 13 -47 28 -96 41 -146 37 -233 105 -287 224
-32 70 -44 83 -86 92 -23 4 -39 -2 -78 -33 -46 -36 -53 -38 -120 -38 -171 1
-314 139 -324 315 -9 159 105 299 270 329 77 14 152 -1 242 -47 58 -29 82 -35
132 -36 62 0 67 2 206 76 107 57 244 61 352 10z m-1739 -403 c124 -46 220
-144 300 -304 78 -155 91 -281 45 -428 -11 -34 -20 -67 -20 -74 0 -6 23 -38
50 -69 152 -174 155 -369 8 -602 l-41 -65 17 -66 c70 -258 -10 -530 -220 -747
l-68 -69 -7 105 c-20 278 -104 478 -271 642 l-88 87 28 113 28 112 116 58
c132 67 220 140 280 232 43 66 48 106 18 136 -39 39 -82 24 -114 -39 -31 -59
-108 -135 -187 -183 -35 -20 -64 -36 -66 -34 -4 3 32 127 129 449 88 293 90
311 34 330 -22 7 -33 5 -54 -10 -29 -21 -67 -135 -178 -523 -30 -107 -57 -201
-60 -209 -12 -37 -98 132 -116 229 -9 47 -9 78 0 131 14 79 6 104 -34 119 -61
24 -91 -21 -100 -150 -11 -147 52 -325 157 -443 l50 -56 -25 -96 c-13 -53 -26
-99 -29 -102 -3 -2 -18 2 -34 10 -21 11 -36 34 -57 84 -87 211 -253 355 -448
385 -87 14 -87 13 -47 106 40 93 135 177 247 218 67 25 72 34 72 139 0 173 47
282 180 415 96 97 143 131 227 166 78 32 198 33 278 3z m797 -375 c16 -5 17
-18 11 -142 -5 -117 -3 -142 11 -169 20 -39 44 -53 88 -53 50 1 69 16 158 128
45 56 87 102 93 102 7 -1 23 -10 36 -20 l23 -20 -56 -61 c-82 -89 -89 -102
-83 -155 6 -54 36 -91 83 -100 18 -3 85 -2 148 3 115 8 116 8 116 -14 0 -12 3
-28 6 -36 4 -10 -7 -17 -39 -25 -85 -22 -221 -99 -295 -167 -38 -36 -75 -65
-81 -65 -25 0 -88 41 -131 84 -36 38 -51 46 -80 46 -20 0 -42 -6 -49 -12 -6
-7 4 21 23 62 37 82 60 156 52 169 -3 5 -27 12 -52 16 -26 3 -52 9 -58 11 -7
3 -17 -15 -24 -43 -7 -27 -29 -81 -49 -121 l-36 -73 -22 56 -23 56 33 72 c61
132 96 266 110 420 l7 68 31 -6 c18 -4 40 -9 49 -11z m935 -521 c7 -32 16
-116 20 -188 7 -162 -14 -315 -63 -461 -19 -57 -34 -111 -34 -120 0 -48 72
-72 109 -35 10 10 29 48 42 85 28 77 35 81 139 74 81 -6 150 -36 225 -98 64
-54 96 -71 174 -90 l63 -16 -49 -27 c-118 -64 -240 -71 -383 -22 -89 30 -124
31 -150 5 -33 -33 -36 -69 -10 -115 106 -188 142 -272 133 -316 -4 -24 -7 -23
-71 41 -37 36 -92 81 -123 98 -90 51 -159 141 -159 207 0 12 -9 34 -21 49 -30
38 -70 35 -113 -8 -18 -19 -53 -45 -77 -57 -40 -21 -56 -23 -160 -21 -105 2
-169 -5 -237 -24 -24 -7 -24 -7 -8 25 20 38 75 74 222 146 62 30 114 62 118
70 3 9 6 31 6 49 0 45 -30 69 -120 96 -99 29 -166 68 -227 133 -46 49 -93 122
-93 145 0 6 26 -1 58 -14 50 -21 73 -24 193 -24 156 0 240 -19 298 -68 l34
-28 -12 -79 c-10 -67 -9 -81 4 -101 34 -52 98 -38 114 24 36 137 40 514 6 621
-9 29 -13 57 -8 61 10 10 137 49 142 44 2 -2 10 -29 18 -61z m-3306 13 c143
-31 264 -108 344 -221 26 -36 52 -66 58 -66 7 -1 59 -2 117 -3 96 -1 111 -4
172 -33 119 -56 208 -159 264 -306 35 -92 43 -100 114 -126 141 -52 273 -176
345 -326 88 -181 102 -300 88 -720 l-8 -231 -92 14 c-55 8 -93 19 -93 26 0 6
-56 66 -123 133 l-123 123 13 77 c9 50 13 124 10 208 -3 108 -8 141 -29 198
-14 38 -34 77 -44 88 -35 39 -114 14 -114 -36 0 -13 12 -49 27 -81 24 -51 28
-75 31 -182 3 -72 0 -128 -5 -133 -11 -11 -151 148 -345 388 l-114 143 18 72
c48 184 26 419 -47 491 -22 23 -68 21 -90 -3 -21 -23 -17 -57 15 -145 19 -51
22 -75 18 -156 -3 -53 -8 -101 -12 -108 -9 -14 -93 93 -292 372 -149 209 -165
227 -199 227 -33 0 -68 -47 -60 -79 6 -25 158 -241 330 -471 56 -74 105 -141
110 -149 7 -12 -3 -13 -57 -7 -128 13 -223 58 -310 148 -53 53 -85 61 -118 28
-11 -11 -20 -33 -20 -49 0 -41 98 -137 187 -183 105 -55 163 -70 303 -74 l125
-4 106 -133 c59 -73 163 -198 232 -277 69 -80 121 -149 117 -154 -5 -5 -62 -6
-127 -4 -134 6 -191 23 -272 82 -58 43 -102 47 -125 14 -9 -12 -16 -32 -16
-44 0 -49 143 -141 262 -169 76 -18 247 -19 335 -3 l64 12 72 -73 c57 -57 67
-71 47 -66 -78 17 -568 85 -617 85 -72 0 -172 -21 -238 -50 l-50 -21 -15 20
c-8 12 -46 82 -85 157 l-70 136 -72 28 c-88 34 -190 105 -226 158 -66 94 -85
221 -52 342 26 96 24 102 -57 164 -120 90 -191 205 -222 358 -18 88 -20 222
-5 288 31 137 149 264 282 305 56 18 255 18 338 1z m3049 -267 c0 -83 -2 -90
-17 -84 -81 34 -123 46 -181 53 l-67 7 55 34 c66 41 157 80 188 81 21 0 22 -3
22 -91z m-721 -138 c12 -36 25 -72 30 -80 7 -11 -5 -22 -54 -46 -53 -27 -146
-86 -226 -144 -13 -9 -3 19 31 85 28 55 59 131 68 170 13 53 28 84 61 125 24
30 46 61 49 69 4 8 10 -14 14 -49 4 -36 16 -94 27 -130z m-605 -1600 c9 -30
16 -57 16 -59 0 -9 -95 11 -102 21 -4 7 -8 79 -8 161 0 126 3 152 17 168 16
18 18 12 39 -109 11 -70 29 -152 38 -182z m-984 -44 l215 -33 5 -161 c4 -140
7 -164 24 -182 23 -25 53 -27 84 -5 21 15 22 21 22 170 0 100 4 154 10 154 13
0 1135 -168 1173 -176 l27 -6 0 -96 c0 -110 11 -132 66 -132 50 0 64 28 64
128 l0 84 33 -6 c17 -3 214 -33 437 -66 223 -33 422 -65 442 -70 46 -13 78
-52 78 -95 0 -35 -30 -80 -58 -89 -16 -5 -355 -56 -373 -56 -5 0 -9 13 -9 28
0 44 -22 66 -65 66 -46 0 -65 -23 -65 -75 0 -35 -3 -39 -32 -44 -80 -14 -861
-125 -878 -125 -19 0 -20 7 -20 95 0 88 -2 98 -25 120 -29 29 -55 32 -84 8
-19 -16 -21 -30 -23 -133 l-3 -115 -625 -90 -625 -90 -5 178 c-5 195 -6 197
-67 197 -56 0 -63 -22 -63 -208 l0 -164 -25 6 c-106 27 -226 101 -287 176
l-28 35 25 50 c73 151 70 351 -9 504 l-17 32 63 63 c97 96 227 154 348 155 30
0 152 -14 270 -32z m-1043 -184 c93 -36 170 -67 171 -69 2 -1 1 -16 -3 -32
l-6 -30 -62 6 c-41 3 -98 20 -167 49 -123 51 -150 68 -150 90 0 18 28 53 42
53 4 0 83 -30 175 -67z m151 -259 l162 -6 0 -32 0 -33 -242 -6 c-450 -13 -458
-12 -458 39 0 44 25 49 206 47 93 -2 242 -5 332 -9z m16 -230 c4 -15 3 -30 -1
-34 -16 -14 -319 -130 -340 -130 -26 0 -47 33 -38 60 4 11 33 30 78 48 40 17
99 41 132 55 35 15 81 26 111 26 48 1 52 -1 58 -25z"/>
<path d="M2236 1024 c-13 -13 -16 -43 -16 -168 0 -135 2 -155 18 -169 25 -23
68 -21 92 3 18 18 20 33 20 163 0 164 -8 187 -65 187 -18 0 -41 -7 -49 -16z"/>
</g>
</svg>
